<svg xmlns="http://www.w3.org/2000/svg" viewBox="0 0 256 256" width="256" height="256"><title>YoLab</title><g transform="translate(-25.91 -24.27) scale(1.149)"><title id="title">YoLab (small sizes)</title><g id="symbol" transform="translate(-3 -2)"><path id="house" fill="#1c3fd6" fill-rule="evenodd" d="M40 200L40 200A10 10 0 0 1 30 190L30 128.14A10 10 0 0 1 32.93 121.07L90.93 63.07A10 10 0 0 1 105.07 63.07L146.9 104.9A52 52 0 0 0 124.35 141.94A36 36 0 0 0 109.17 200Z"/><path id="cloud" fill="#8aa4ff" d="M136 200A24 24 0 1 1 136.2 152A40 40 0 1 1 215.8 144A28 28 0 1 1 216 200Z"/></g></g></svg>